<?xml version="1.0" encoding="UTF-8"?>
<svg version="1.1" xmlns="http://www.w3.org/2000/svg" width="512" height="512">
<path d="M0 0 C89.76 0 179.52 0 272 0 C272 5.28 272 10.56 272 16 C274.2158783 15.99111755 276.43175659 15.98223511 278.71478271 15.9730835 C299.60794059 15.8912561 320.50107728 15.83177569 341.39435959 15.79275131 C352.13552948 15.77215437 362.87658154 15.7440887 373.61767578 15.69824219 C382.98313105 15.65828652 392.34850095 15.63254635 401.71403909 15.62364602 C406.66985665 15.61844605 411.62543006 15.60628424 416.58116913 15.57707977 C421.2531528 15.54977259 425.92479354 15.54158572 430.59684944 15.54756927 C432.30436382 15.54647585 434.0118906 15.53861359 435.71933556 15.5231781 C451.81531121 15.38490158 467.09604095 18.93421397 479.31640625 30.1875 C489.69678347 41.36266248 496.29374206 54.62366798 496.30639648 69.92602539 C496.31472 70.7921344 496.32304352 71.65824341 496.33161926 72.55059814 C496.35561199 75.39966402 496.36448019 78.2485002 496.37109375 81.09765625 C496.38007134 83.09435591 496.38919338 85.09105492 496.39845276 87.0877533 C496.41491845 91.27132801 496.42263791 95.45482295 496.42553711 99.63842773 C496.43090469 104.96530012 496.46852826 110.29140839 496.51428127 115.61806583 C496.5442236 119.74397931 496.55126445 123.86971303 496.55226326 127.99572563 C496.55643498 129.9574882 496.56874472 131.91925284 496.58978081 133.88090706 C496.75399406 150.52463191 494.64406686 164.11199605 483 177 C470.39202993 189.05082573 457.19745379 192.64176333 440.18359375 192.30859375 C426.99781892 191.73715485 415.53861601 185.25176925 406.5390625 175.76171875 C405.5062797 174.57952321 404.50091793 173.37284661 403.5234375 172.14453125 C397.51645227 164.61170752 390.38806146 162.21673927 381 161 C375.39451361 160.71690026 369.79893019 160.717787 364.1875 160.734375 C362.5666498 160.73302458 360.9458 160.73108092 359.32495117 160.72857666 C355.94283151 160.72564311 352.56081815 160.72986569 349.17871094 160.73925781 C344.86852047 160.75065128 340.55857918 160.74408227 336.24839783 160.73211288 C332.90586509 160.72484625 329.56339031 160.72720414 326.22085571 160.73236847 C324.63261891 160.73369171 323.04437665 160.73210434 321.45614624 160.72740936 C303.10842084 160.46826254 303.10842084 160.46826254 287.20849609 168.60253906 C285.46917872 170.39444388 283.81881428 172.23446852 282.1875 174.125 C281.07949689 175.37997007 279.96891728 176.63267124 278.85546875 177.8828125 C278.37746826 178.43340332 277.89946777 178.98399414 277.40698242 179.55126953 C276 181 276 181 273 183 C272.67 191.25 272.34 199.5 272 208 C345.92 208 419.84 208 496 208 C496 303.04 496 398.08 496 496 C454.5025 496.0825 413.005 496.165 370.25 496.25 C357.15086914 496.28641602 344.05173828 496.32283203 330.55566406 496.36035156 C314.55029297 496.37841797 314.55029297 496.37841797 307.05560303 496.3817749 C301.82522291 496.38549893 296.59500912 496.40014551 291.36468506 496.42230225 C284.68711062 496.45054779 278.00981368 496.45795435 271.3321681 496.4522891 C268.88521871 496.45347327 266.43826085 496.46137225 263.99136019 496.47686052 C245.32321435 496.5895088 230.27599564 495.24864158 216.1875 481.5 C214.54529931 479.76829548 213.00952378 478.01196771 211.5234375 476.14453125 C205.51645227 468.61170752 198.38806146 466.21673927 189 465 C183.39451361 464.71690026 177.79893019 464.717787 172.1875 464.734375 C170.5666498 464.73302458 168.9458 464.73108092 167.32495117 464.72857666 C163.94283151 464.72564311 160.56081815 464.72986569 157.17871094 464.73925781 C152.86852047 464.75065128 148.55857918 464.74408227 144.24839783 464.73211288 C140.90586509 464.72484625 137.56339031 464.72720414 134.22085571 464.73236847 C132.63261891 464.73369171 131.04437665 464.73210434 129.45614624 464.72740936 C111.09414762 464.41504521 111.09414762 464.41504521 95.25976562 472.61572266 C93.53462428 474.47260389 91.88831053 476.37874079 90.25 478.3125 C81.01619983 488.67128067 70.15218406 495.61811448 55.921875 496.46875 C54.19822504 496.50297944 52.47394171 496.51287725 50.75 496.5 C49.83686035 496.49355469 48.9237207 496.48710937 47.98291016 496.48046875 C34.0528807 496.10749632 22.40406951 490.74638094 12.71875 480.61328125 C4.28851708 470.59451563 -0.30520092 460.10539031 -0.29052734 447.04223633 C-0.29724457 446.17291473 -0.30396179 445.30359314 -0.31088257 444.40792847 C-0.32979582 441.54923701 -0.33378374 438.69078129 -0.3359375 435.83203125 C-0.34237129 433.83054002 -0.34910008 431.82904972 -0.35610962 429.82756042 C-0.36806662 425.63558779 -0.37179219 421.44369746 -0.37060547 417.25170898 C-0.37040266 411.90680972 -0.39767303 406.5624444 -0.43214989 401.21767139 C-0.45450239 397.08326341 -0.45844042 392.94898208 -0.45738602 388.81451988 C-0.45973064 386.84553887 -0.4684892 384.87655375 -0.48405075 382.90763283 C-0.56019152 372.27665731 -0.47559881 362.88232233 4 353 C4.49242187 351.90042969 4.98484375 350.80085938 5.4921875 349.66796875 C13.63829997 335.05559186 25.219377 326.19647861 41.1916132 320.95204353 C45.16824451 319.95794122 48.54380387 319.75374569 52.63731384 319.75949097 C53.74271911 319.75692769 53.74271911 319.75692769 54.8704558 319.75431263 C57.32251113 319.75103676 59.77428853 319.76198975 62.22631836 319.77294922 C63.99087518 319.77351374 65.75543247 319.77319596 67.51998901 319.77206421 C72.2983891 319.77149131 77.0766884 319.78323545 81.85506511 319.79721212 C86.8532057 319.80972996 91.85134871 319.81089082 96.84950256 319.81326294 C106.30889655 319.8194746 115.7682442 319.8358812 125.2276178 319.85596192 C135.99903182 319.87833065 146.77044807 319.8893168 157.54187953 319.89935279 C179.69461289 319.92024769 201.84730189 319.95582133 224 320 C224 309.44 224 298.88 224 288 C150.08 288 76.16 288 0 288 C0 192.96 0 97.92 0 0 Z " fill="#010100" transform="translate(8,8)"/>
<path d="M0 0 C0.7811618 -0.00029205 1.56232361 -0.00058411 2.36715698 -0.00088501 C4.93189869 0.00050086 7.49634462 0.0160268 10.06103516 0.03173828 C11.84607789 0.03547106 13.63112269 0.03831678 15.41616821 0.04031372 C20.10151889 0.04792935 24.78674446 0.06755999 29.4720459 0.08972168 C35.10053421 0.1138332 40.72906448 0.12297095 46.35758972 0.1346283 C54.89684589 0.15398563 63.43582786 0.19232262 71.97509766 0.22705078 C71.97509766 21.34705078 71.97509766 42.46705078 71.97509766 64.22705078 C87.81509766 64.22705078 103.65509766 64.22705078 119.97509766 64.22705078 C119.97509766 43.10705078 119.97509766 21.98705078 119.97509766 0.22705078 C139.16939119 0.02650673 139.16939119 0.02650673 147.42236328 -0.01708984 C153.02913406 -0.04684936 158.63549223 -0.08185316 164.24194336 -0.15014648 C168.76777953 -0.20492451 173.29317257 -0.23446507 177.81931496 -0.24733543 C179.53632383 -0.25649393 181.25331155 -0.27437587 182.97012901 -0.3015995 C196.98694278 -0.51479643 209.24001643 1.20436625 219.97509766 11.22705078 C230.23424995 21.36663254 232.14986554 32.77793944 232.26950359 46.78317165 C232.27891214 49.2449784 232.27819074 51.7066351 232.27587891 54.16845703 C232.2797736 55.90380454 232.28410985 57.6391511 232.28886414 59.37449646 C232.29629032 62.99619653 232.29606047 66.61779904 232.29077148 70.23950195 C232.28496854 74.86149893 232.30194525 79.48309626 232.32511616 84.1050272 C232.33990116 87.68342897 232.34071895 91.26173537 232.33760643 94.84016228 C232.33811681 96.54366792 232.34330092 98.24717931 232.35341835 99.95065498 C232.42441639 113.56905192 231.10341391 124.64080121 221.31103516 134.98486328 C212.96900682 142.56506254 204.41810749 144.64266578 193.31884766 144.49267578 C183.25126667 143.69291467 176.82104442 138.28269321 169.97509766 131.22705078 C169.12346368 130.20029207 168.28637712 129.16098398 167.47509766 128.10205078 C160.07438739 119.59123398 150.03415153 114.63702372 138.97509766 113.22705078 C132.5904881 112.85137416 126.18433455 112.94505957 119.79150391 112.96142578 C117.92642669 112.96007589 116.06134982 112.95813267 114.1962738 112.95562744 C110.30049263 112.9526907 106.40480361 112.95692647 102.5090332 112.96630859 C97.54204488 112.97769424 92.57527296 112.97113999 87.60829258 112.95916367 C83.76045636 112.95189898 79.91267052 112.95425419 76.06483269 112.95941925 C74.23459789 112.96074344 72.40435837 112.9591517 70.5741291 112.95446014 C52.78759838 112.91886642 38.51156428 114.32018726 24.97509766 127.22705078 C23.84139066 128.53203725 22.71705114 129.84519633 21.60009766 131.16455078 C15.32847217 138.45394005 8.29729472 143.48897332 -1.46630859 144.47314453 C-13.58341922 144.79550898 -21.7545994 141.71782452 -30.81005859 133.63330078 C-40.70021973 123.31313264 -40.77621414 110.46225921 -40.68896484 97.10205078 C-40.6923416 95.26464519 -40.69720132 93.42724179 -40.70346069 91.58984375 C-40.7107916 87.75710581 -40.70024968 83.92495437 -40.67675781 80.09228516 C-40.64827215 75.21024882 -40.6646966 70.32958737 -40.69462013 65.44760132 C-40.71279616 61.65883255 -40.70688821 57.87038305 -40.69398117 54.081604 C-40.69067554 52.28289624 -40.69463265 50.48415829 -40.70637894 48.68548584 C-40.78295652 33.66843543 -38.29516934 21.6285008 -27.36865234 10.54736328 C-19.60723263 3.45624799 -10.50118916 -0.10393758 0 0 Z " fill="#A9B1BC" transform="translate(64.02490234375,343.77294921875)"/>
<path d="M0 0 C0.7811618 -0.00029205 1.56232361 -0.00058411 2.36715698 -0.00088501 C4.93189869 0.00050086 7.49634462 0.0160268 10.06103516 0.03173828 C11.84607789 0.03547106 13.63112269 0.03831678 15.41616821 0.04031372 C20.10151889 0.04792935 24.78674446 0.06755999 29.4720459 0.08972168 C35.10053421 0.1138332 40.72906448 0.12297095 46.35758972 0.1346283 C54.89684589 0.15398563 63.43582786 0.19232262 71.97509766 0.22705078 C71.97509766 21.34705078 71.97509766 42.46705078 71.97509766 64.22705078 C87.81509766 64.22705078 103.65509766 64.22705078 119.97509766 64.22705078 C119.97509766 43.10705078 119.97509766 21.98705078 119.97509766 0.22705078 C139.16939119 0.02650673 139.16939119 0.02650673 147.42236328 -0.01708984 C153.02913406 -0.04684936 158.63549223 -0.08185316 164.24194336 -0.15014648 C168.76777953 -0.20492451 173.29317257 -0.23446507 177.81931496 -0.24733543 C179.53632383 -0.25649393 181.25331155 -0.27437587 182.97012901 -0.3015995 C196.98694278 -0.51479643 209.24001643 1.20436625 219.97509766 11.22705078 C230.23424995 21.36663254 232.14986554 32.77793944 232.26950359 46.78317165 C232.27891214 49.2449784 232.27819074 51.7066351 232.27587891 54.16845703 C232.2797736 55.90380454 232.28410985 57.6391511 232.28886414 59.37449646 C232.29629032 62.99619653 232.29606047 66.61779904 232.29077148 70.23950195 C232.28496854 74.86149893 232.30194525 79.48309626 232.32511616 84.1050272 C232.33990116 87.68342897 232.34071895 91.26173537 232.33760643 94.84016228 C232.33811681 96.54366792 232.34330092 98.24717931 232.35341835 99.95065498 C232.42441639 113.56905192 231.10341391 124.64080121 221.31103516 134.98486328 C212.96900682 142.56506254 204.41810749 144.64266578 193.31884766 144.49267578 C183.25126667 143.69291467 176.82104442 138.28269321 169.97509766 131.22705078 C169.12346368 130.20029207 168.28637712 129.16098398 167.47509766 128.10205078 C160.07438739 119.59123398 150.03415153 114.63702372 138.97509766 113.22705078 C132.5904881 112.85137416 126.18433455 112.94505957 119.79150391 112.96142578 C117.92642669 112.96007589 116.06134982 112.95813267 114.1962738 112.95562744 C110.30049263 112.9526907 106.40480361 112.95692647 102.5090332 112.96630859 C97.54204488 112.97769424 92.57527296 112.97113999 87.60829258 112.95916367 C83.76045636 112.95189898 79.91267052 112.95425419 76.06483269 112.95941925 C74.23459789 112.96074344 72.40435837 112.9591517 70.5741291 112.95446014 C53.80068163 112.92089376 39.64137024 113.74334264 26.58056641 125.59423828 C24.80428686 127.40077077 23.17381795 129.29300163 21.53759766 131.22705078 C15.29656088 138.49667714 8.25550144 143.49318608 -1.46630859 144.47314453 C-13.58341922 144.79550898 -21.7545994 141.71782452 -30.81005859 133.63330078 C-40.70021973 123.31313264 -40.77621414 110.46225921 -40.68896484 97.10205078 C-40.6923416 95.26464519 -40.69720132 93.42724179 -40.70346069 91.58984375 C-40.7107916 87.75710581 -40.70024968 83.92495437 -40.67675781 80.09228516 C-40.64827215 75.21024882 -40.6646966 70.32958737 -40.69462013 65.44760132 C-40.71279616 61.65883255 -40.70688821 57.87038305 -40.69398117 54.081604 C-40.69067554 52.28289624 -40.69463265 50.48415829 -40.70637894 48.68548584 C-40.78295652 33.66843543 -38.29516934 21.6285008 -27.36865234 10.54736328 C-19.60723263 3.45624799 -10.50118916 -0.10393758 0 0 Z " fill="#A9B1BC" transform="translate(256.02490234375,39.77294921875)"/>
<path d="M0 0 C68.64 0 137.28 0 208 0 C208 84.48 208 168.96 208 256 C197.44 256 186.88 256 176 256 C175.96132813 250.57820313 175.96132813 250.57820313 175.921875 245.046875 C175.88336585 241.51196803 175.83823407 237.97720258 175.79248047 234.44238281 C175.76440813 232.00234839 175.74312593 229.56222535 175.72900391 227.12207031 C175.70738378 223.59654821 175.66063499 220.07207636 175.609375 216.546875 C175.60753204 214.93362335 175.60753204 214.93362335 175.60565186 213.28778076 C175.3507871 199.84346944 170.49575334 187.82700319 161.5 177.8125 C149.83022674 166.99183337 134.01913066 164.3336769 119 161 C118.06650269 157.34554994 117.2822297 153.76644674 117 150 C118.52734375 147.44921875 118.52734375 147.44921875 120.9375 145.6875 C128.99772755 138.75918712 133.69678246 128.52605924 135 118 C135.08349542 115.44915436 135.13211074 112.91771334 135.1328125 110.3671875 C135.13569023 109.33818329 135.13569023 109.33818329 135.1386261 108.28839111 C135.14133383 105.42662621 135.13963603 102.56678613 135.07910156 99.70556641 C134.8542272 87.60348662 134.8542272 87.60348662 137.69165039 83.63256836 C139.71061121 81.90260019 141.78020084 80.45761788 144 79 C154.50896307 67.09681297 159.66903248 52.63274261 159.3046875 36.82421875 C158.51229961 29.47939252 154.66968597 25.2122989 149.29296875 20.4453125 C143.92315422 17.06059124 138.0597906 16.70170819 131.8684082 16.70947266 C131.08686874 16.70275543 130.30532928 16.69603821 129.50010681 16.68911743 C126.93359902 16.67022591 124.36735412 16.66621734 121.80078125 16.6640625 C120.00107215 16.657627 118.20136407 16.65089809 116.4016571 16.64389038 C112.63338804 16.63193866 108.86521049 16.62820724 105.09692383 16.62939453 C100.29680684 16.62959727 95.49728489 16.60233252 90.69730854 16.56785011 C86.97980623 16.54547565 83.26244454 16.54156025 79.54488182 16.54261398 C77.77685693 16.54027243 76.0088273 16.53153157 74.24086952 16.51594925 C59.6644188 16.39953123 48.25781054 18.52203696 36 27 C35.36320312 27.43957031 34.72640625 27.87914062 34.0703125 28.33203125 C25.54550877 34.90560213 21.03602872 44.92887247 18 55 C17.81050781 55.59683594 17.62101562 56.19367188 17.42578125 56.80859375 C14.17297441 73.55010416 19.1937368 90.10680087 28.0625 104.30078125 C33.5547804 112.20460953 33.5547804 112.20460953 41 118 C41.38671875 119.828125 41.38671875 119.828125 41.6875 122.25 C43.42023842 131.5668012 47.9126127 139.45711883 55.0625 145.625 C57.375 147.72265625 57.375 147.72265625 59 150 C59.16552254 153.96736838 58.34062737 157.28375314 57 161 C54.52121375 161.62653984 52.04199014 162.25125672 49.5625 162.875 C48.87478516 163.04902344 48.18707031 163.22304688 47.47851562 163.40234375 C42.33823038 164.69339214 37.17872587 165.87343191 32 167 C31.9906543 166.34104736 31.98130859 165.68209473 31.97167969 165.00317383 C31.61457639 144.95462457 29.78102862 127.14154151 15 112 C1.29098823 99.83566561 -14.34783438 96.75436605 -32 96 C-32 85.44 -32 74.88 -32 64 C-21.44 64 -10.88 64 0 64 C0 42.88 0 21.76 0 0 Z " fill="#E5E8EC" transform="translate(280,232)"/>
<path d="M0 0 C73.59 0 147.18 0 223 0 C223 0.33 223 0.66 223 1 C222.20078125 1.20753906 221.4015625 1.41507813 220.578125 1.62890625 C204.50653303 6.13725189 192.83702449 13.88816245 184 28 C182.89351927 29.97837191 181.92634786 31.92934007 181 34 C180.34 34 179.68 34 179 34 C178.10667969 32.87271484 178.10667969 32.87271484 177.1953125 31.72265625 C170.66877566 23.62835701 159.10413653 18.73041553 149 17 C147.07076791 16.89714246 145.13866575 16.84200007 143.20678711 16.82299805 C142.0646727 16.81016281 140.92255829 16.79732758 139.74583435 16.78410339 C138.51873245 16.77671646 137.29163055 16.76932953 136.02734375 16.76171875 C134.75331192 16.753647 133.47928009 16.74557526 132.16664124 16.73725891 C129.46921168 16.72343535 126.77190354 16.71241513 124.07446289 16.70483398 C120.65082831 16.69382259 117.22785318 16.65947059 113.80445004 16.61966228 C110.50381489 16.58691649 107.2031165 16.58269308 103.90234375 16.57421875 C102.68941147 16.55671066 101.47647919 16.53920258 100.22679138 16.52116394 C87.98492141 16.5519276 78.03521326 20.05926888 68 27 C67.36320312 27.43957031 66.72640625 27.87914063 66.0703125 28.33203125 C57.54550877 34.90560213 53.03602872 44.92887247 50 55 C49.81050781 55.59683594 49.62101562 56.19367188 49.42578125 56.80859375 C46.16150527 73.60913345 51.22697405 90.14154298 60.1328125 104.37109375 C63.8151126 109.55558741 67.68250917 114.45500611 73 118 C73.484375 119.92578125 73.484375 119.92578125 73.75 122.3125 C75.40379028 131.61675103 79.94031833 139.48101921 87.0625 145.625 C89.375 147.72265625 89.375 147.72265625 91 150 C91.16552254 153.96736838 90.34062737 157.28375314 89 161 C87.97261719 161.25394531 86.94523437 161.50789062 85.88671875 161.76953125 C83.00579341 162.48304938 80.12734989 163.20579906 77.25 163.93359375 C74.79558642 164.5542563 72.34189525 165.15218672 69.875 165.72265625 C56.8141614 168.89294701 46.89253872 175.54718143 39.6875 186.9375 C37.12820356 191.45104182 35.35227318 195.99950782 34 201 C33.82803604 201.59548645 33.65607208 202.1909729 33.47889709 202.80450439 C32.93592062 205.29377082 32.8388219 207.58799318 32.79467773 210.13574219 C32.7647599 211.66687653 32.7647599 211.66687653 32.73423767 213.22894287 C32.70916893 214.87131927 32.70916893 214.87131927 32.68359375 216.546875 C32.66281265 217.6732135 32.64203156 218.799552 32.62062073 219.96002197 C32.55525667 223.55661949 32.49630115 227.15328977 32.4375 230.75 C32.3943023 233.1888096 32.3506876 235.62761184 32.30664062 238.06640625 C32.19880437 244.04419735 32.0996326 250.02204399 32 256 C21.44 256 10.88 256 0 256 C0 171.52 0 87.04 0 0 Z " fill="#E5E8EC" transform="translate(24,24)"/>
<path d="M0 0 C0.69867188 0.68320313 1.39734375 1.36640625 2.1171875 2.0703125 C9.9080406 9.03774211 17.19176889 10.93818459 27.6015625 10.56640625 C36.8259065 9.55682943 42.27561059 5.57939799 48.765625 -0.87890625 C51.0757116 -2.87692852 52.05870354 -3.32495978 54.9921875 -3.8046875 C67.17563261 -2.03808796 80.79613502 0.60353013 88.9921875 10.5078125 C103.15084524 29.86535238 95.9921875 49.89073546 95.9921875 75.1953125 C48.4721875 75.1953125 0.9521875 75.1953125 -48.0078125 75.1953125 C-48.0078125 17.57713068 -48.0078125 17.57713068 -37.5703125 6.5703125 C-30.85982948 1.68928889 -23.84257734 -0.63230669 -15.7578125 -2.1796875 C-14.87351563 -2.36917969 -13.98921875 -2.55867187 -13.078125 -2.75390625 C-12.22476563 -2.92277344 -11.37140625 -3.09164062 -10.4921875 -3.265625 C-9.72616211 -3.41821777 -8.96013672 -3.57081055 -8.17089844 -3.72802734 C-4.59330754 -3.85481781 -2.5918468 -2.32963661 0 0 Z " fill="#FE816D" transform="translate(120.0078125,204.8046875)"/>
<path d="M0 0 C1.40306717 1.26112263 2.77616763 2.55603108 4.125 3.875 C11.9158531 10.84242961 19.19958139 12.74287209 29.609375 12.37109375 C38.833719 11.36151693 44.28342309 7.38408549 50.7734375 0.92578125 C53.0835241 -1.07224102 54.06651604 -1.52027228 57 -2 C69.18344511 -0.23340046 82.80394752 2.40821763 91 12.3125 C105.15865774 31.67003988 98 51.69542296 98 77 C51.47 77 4.94 77 -43 77 C-41.49052088 73.98104176 -39.9518774 71.3690759 -38.125 68.5625 C-30.21431554 55.10951592 -30.35263846 41.86963741 -30.25 26.6875 C-30.22179041 24.57875207 -30.19185617 22.47002647 -30.16015625 20.36132812 C-30.08688837 15.24092607 -30.0369525 10.12078762 -30 5 C-28.59497156 4.35199859 -27.1872958 3.70973571 -25.77856445 3.06982422 C-24.99496048 2.71153534 -24.21135651 2.35324646 -23.40400696 1.98410034 C-19.74748519 0.48727259 -16.07116942 -0.23295582 -12.1875 -0.875 C-11.45080078 -1.01679688 -10.71410156 -1.15859375 -9.95507812 -1.3046875 C-3.27667208 -2.46300183 -3.27667208 -2.46300183 0 0 Z " fill="#5BD5B2" transform="translate(342,411)"/>
<path d="M0 0 C1.1240625 -0.01611328 2.248125 -0.03222656 3.40625 -0.04882812 C11.04660942 -0.0533437 15.79529145 0.54567386 21.4375 6.0625 C23.84227982 9.63531573 24.36963186 12.05636442 24.625 16.3125 C26.1409375 16.374375 26.1409375 16.374375 27.6875 16.4375 C32.42397939 17.10176235 35.51399472 19.80748878 38.625 23.3125 C41.71828342 28.3575482 40.95382458 33.95430658 40.9375 39.6875 C40.95361328 40.8115625 40.96972656 41.935625 40.98632812 43.09375 C40.9908437 50.73410942 40.39182614 55.48279145 34.875 61.125 C31.30218427 63.52977982 28.88113558 64.05713186 24.625 64.3125 C24.58375 65.323125 24.5425 66.33375 24.5 67.375 C23.82997538 72.08431593 21.21402492 75.30311848 17.625 78.3125 C11.92110366 81.02743342 6.39144058 80.68038131 0.1875 80.6875 C-1.49182617 80.72423828 -1.49182617 80.72423828 -3.20507812 80.76171875 C-9.5823804 80.78442724 -13.55672824 80.64415822 -18.375 76.3125 C-22.16075609 72.52674391 -22.95919203 69.61405158 -23.375 64.3125 C-24.385625 64.27125 -25.39625 64.23 -26.4375 64.1875 C-31.14681593 63.51747538 -34.36561848 60.90152492 -37.375 57.3125 C-40.08993342 51.60860366 -39.74288131 46.07894058 -39.75 39.875 C-39.77449219 38.75544922 -39.79898438 37.63589844 -39.82421875 36.48242188 C-39.84692724 30.1051196 -39.70665822 26.13077176 -35.375 21.3125 C-31.58924391 17.52674391 -28.67655158 16.72830797 -23.375 16.3125 C-23.33375 15.301875 -23.2925 14.29125 -23.25 13.25 C-22.58573765 8.51352061 -19.88001122 5.42350528 -16.375 2.3125 C-11.3299518 -0.78078342 -5.73319342 -0.01632458 0 0 Z " fill="#010101" transform="translate(79.375,359.6875)"/>
<path d="M0 0 C1.1240625 -0.01611328 2.248125 -0.03222656 3.40625 -0.04882812 C11.04660942 -0.0533437 15.79529145 0.54567386 21.4375 6.0625 C23.84227982 9.63531573 24.36963186 12.05636442 24.625 16.3125 C26.1409375 16.374375 26.1409375 16.374375 27.6875 16.4375 C32.42397939 17.10176235 35.51399472 19.80748878 38.625 23.3125 C41.71828342 28.3575482 40.95382458 33.95430658 40.9375 39.6875 C40.95361328 40.8115625 40.96972656 41.935625 40.98632812 43.09375 C40.9908437 50.73410942 40.39182614 55.48279145 34.875 61.125 C31.30218427 63.52977982 28.88113558 64.05713186 24.625 64.3125 C24.58375 65.323125 24.5425 66.33375 24.5 67.375 C23.82997538 72.08431593 21.21402492 75.30311848 17.625 78.3125 C11.92110366 81.02743342 6.39144058 80.68038131 0.1875 80.6875 C-1.49182617 80.72423828 -1.49182617 80.72423828 -3.20507812 80.76171875 C-9.5823804 80.78442724 -13.55672824 80.64415822 -18.375 76.3125 C-22.16075609 72.52674391 -22.95919203 69.61405158 -23.375 64.3125 C-24.385625 64.27125 -25.39625 64.23 -26.4375 64.1875 C-31.14681593 63.51747538 -34.36561848 60.90152492 -37.375 57.3125 C-40.08993342 51.60860366 -39.74288131 46.07894058 -39.75 39.875 C-39.77449219 38.75544922 -39.79898438 37.63589844 -39.82421875 36.48242188 C-39.84692724 30.1051196 -39.70665822 26.13077176 -35.375 21.3125 C-31.58924391 17.52674391 -28.67655158 16.72830797 -23.375 16.3125 C-23.33375 15.301875 -23.2925 14.29125 -23.25 13.25 C-22.58573765 8.51352061 -19.88001122 5.42350528 -16.375 2.3125 C-11.3299518 -0.78078342 -5.73319342 -0.01632458 0 0 Z " fill="#010101" transform="translate(271.375,55.6875)"/>
<path d="M0 0 C0.01401855 0.89755005 0.01401855 0.89755005 0.02832031 1.81323242 C0.3458243 18.01994356 1.40548793 31.34534176 11 45 C11.43957031 45.63550781 11.87914062 46.27101562 12.33203125 46.92578125 C19.13087435 55.76231795 31.1070978 61.96247873 42 64 C44.43602611 64.09444115 46.87464883 64.1299002 49.3125 64.125 C50.58738281 64.12757813 51.86226563 64.13015625 53.17578125 64.1328125 C57.54645693 64.04928781 57.54645693 64.04928781 64 63 C64 90.06 64 117.12 64 145 C53.44 145 42.88 145 32 145 C31.97421875 141.38546875 31.9484375 137.7709375 31.921875 134.046875 C31.88336585 130.51196803 31.83823407 126.97720258 31.79248047 123.44238281 C31.76440813 121.00234839 31.74312593 118.56222535 31.72900391 116.12207031 C31.70738378 112.59654821 31.66063499 109.07207636 31.609375 105.546875 C31.60814636 104.4713739 31.60691772 103.3958728 31.60565186 102.28778076 C31.3507871 88.84346944 26.49575334 76.82700319 17.5 66.8125 C9.1305481 58.92221519 -1.92750558 55.20511541 -13 53 C-14.68814384 52.62790912 -16.37570714 52.25316808 -18.0625 51.875 C-18.75472656 51.72804687 -19.44695312 51.58109375 -20.16015625 51.4296875 C-22 51 -22 51 -25 50 C-26.25152901 46.29982729 -27.08334475 42.92241211 -27 39 C-25.35574684 36.52915217 -23.5018083 34.93902722 -21.23828125 33.02734375 C-15.21701055 27.57352264 -10.31119388 18.0828334 -9.8125 9.9375 C-8.85390724 6.4718185 -4.12493214 0 0 0 Z " fill="#E4E7EB" transform="translate(200,135)"/>
<path d="M0 0 C1.1155854 -0.00744736 1.1155854 -0.00744736 2.25370789 -0.01504517 C4.70235127 -0.02959441 7.15092996 -0.03645507 9.59960938 -0.04199219 C11.30684408 -0.04774765 13.01407878 -0.05350533 14.72131348 -0.05926514 C18.29549459 -0.06975314 21.86965334 -0.07561084 25.44384766 -0.07910156 C30.02039595 -0.08459525 34.59664808 -0.10865107 39.17310333 -0.13707352 C42.69729477 -0.15570385 46.22141472 -0.16090561 49.74565125 -0.16243744 C51.43293383 -0.16546135 53.12021523 -0.17348109 54.80744934 -0.18662262 C57.16743553 -0.20369891 59.52669565 -0.20179981 61.88671875 -0.1953125 C62.58089401 -0.20452728 63.27506927 -0.21374207 63.99028015 -0.22323608 C68.30260437 -0.18614789 71.00920202 0.52790447 74.44335938 3.16113281 C76.8109623 7.89633866 75.90398128 13.49932017 74.53710938 18.43066406 C72.10124477 25.13709898 69.30897377 30.91012321 64.44335938 36.16113281 C63.693125 36.97324219 63.693125 36.97324219 62.92773438 37.80175781 C54.43118666 45.96834251 42.74594179 48.54449347 31.32617188 48.44628906 C26.45462219 47.96441491 24.00336683 45.61713977 20.56835938 42.41113281 C18.86342502 39.0012641 18.69485555 35.83303836 19.44335938 32.16113281 C22.52559628 27.26581538 25.02076375 25.76838415 30.44335938 24.16113281 C30.01023437 23.24589844 29.57710938 22.33066406 29.13085938 21.38769531 C28.57398438 20.19917969 28.01710938 19.01066406 27.44335938 17.78613281 C26.60804688 16.01109375 26.60804688 16.01109375 25.75585938 14.20019531 C24.44335938 11.16113281 24.44335938 11.16113281 24.44335938 9.16113281 C15.18692992 13.67692497 15.18692992 13.67692497 8.44335938 21.16113281 C8.22808594 21.8765625 8.0128125 22.59199219 7.79101562 23.32910156 C6.9451828 26.05862696 6.20661645 27.88767404 4.44335938 30.16113281 C0.75741405 32.09369442 -2.89201184 33.46869181 -6.83007812 34.77441406 C-15.22353603 37.8977658 -20.86956643 43.62090399 -25.36914062 51.22363281 C-26.6970233 54.50839521 -27.66541315 57.73333482 -28.55664062 61.16113281 C-34.16990764 56.66722696 -36.14292247 46.69842301 -36.94726562 39.82128906 C-37.11419415 29.01266694 -35.04585781 19.06937421 -27.50976562 10.95800781 C-19.03437013 3.06712235 -11.54007486 0.01858346 0 0 Z " fill="#B07745" transform="translate(348.556640625,263.8388671875)"/>
<path d="M0 0 C3.07562144 1.04359651 5.01380815 2.48683113 7.55078125 4.51171875 C13.86080611 9.27853101 20.48399398 12.52641775 27.61328125 15.88671875 C28.94794999 16.5507079 30.28156996 17.21681781 31.61328125 17.88671875 C31.73856376 22.22419189 31.82839349 26.56065733 31.88793945 30.89941406 C31.91280709 32.36965315 31.94671487 33.83977233 31.99047852 35.30957031 C32.33119103 47.06214791 30.9868549 58.35355632 22.55859375 67.35546875 C13.51415887 74.47478295 3.87351032 76.81742453 -7.38671875 75.88671875 C-10.71673435 75.00242022 -13.45071917 73.67287819 -16.38671875 71.88671875 C-17.08539063 71.47421875 -17.7840625 71.06171875 -18.50390625 70.63671875 C-25.89657531 65.72687062 -30.01642579 58.31758853 -32.38671875 49.88671875 C-32.5483489 47.24536929 -32.6214146 44.71787219 -32.58203125 42.08203125 C-32.57920135 41.35805145 -32.57637146 40.63407166 -32.57345581 39.88815308 C-32.56233962 37.59583385 -32.53725187 35.30391812 -32.51171875 33.01171875 C-32.50167785 31.44922443 -32.49255394 29.88672393 -32.484375 28.32421875 C-32.46242848 24.51156537 -32.42795888 20.69921027 -32.38671875 16.88671875 C-31.18849487 16.39643188 -31.18849487 16.39643188 -29.96606445 15.89624023 C-15.86376139 10.19471182 -15.86376139 10.19471182 -4.01953125 0.890625 C-2.38671875 -0.11328125 -2.38671875 -0.11328125 0 0 Z " fill="#EECEB2" transform="translate(144.38671875,92.11328125)"/>
<path d="M0 0 C1.05169373 -0.00960754 2.10338745 -0.01921509 3.18695068 -0.02911377 C4.31409485 -0.03336365 5.44123901 -0.03761353 6.60253906 -0.04199219 C7.77270569 -0.04769226 8.94287231 -0.05339233 10.14849854 -0.05926514 C12.6230784 -0.06870239 15.09767077 -0.07524405 17.57226562 -0.07910156 C21.34039474 -0.08879575 25.10797562 -0.11982755 28.87597656 -0.15136719 C31.2848275 -0.15789893 33.69368233 -0.16314873 36.10253906 -0.16699219 C37.78110992 -0.18551239 37.78110992 -0.18551239 39.49359131 -0.20440674 C50.89793866 -0.17224899 59.99125091 2.88765503 68.37597656 10.82519531 C73.76366963 16.75436507 77.08070825 23.09929556 77.61816406 31.16113281 C77.68132812 32.04671875 77.74449219 32.93230469 77.80957031 33.84472656 C78.2105482 43.79156505 75.42369786 52.51117197 70.61816406 61.16113281 C70.28816406 61.16113281 69.95816406 61.16113281 69.61816406 61.16113281 C69.59238281 60.36449219 69.56660156 59.56785156 69.54003906 58.74707031 C69.1170001 50.22514907 69.1170001 50.22514907 64.61816406 43.16113281 C60.99743396 40.17403048 57.42224131 38.66503428 53.05566406 36.97363281 C40.74050536 31.95916844 31.54785365 23.73504851 22.61816406 14.16113281 C18.96296679 15.67448372 16.89836457 17.82828618 14.24316406 20.72363281 C6.40167848 28.69159396 -2.58444624 34.2216896 -12.94433594 38.34863281 C-19.22111093 40.87482364 -22.33329835 43.06405763 -25.38183594 49.16113281 C-25.61041707 51.19860912 -25.79207872 53.24153584 -25.94433594 55.28613281 C-26.028125 56.38183594 -26.11191406 57.47753906 -26.19824219 58.60644531 C-26.25882813 59.44949219 -26.31941406 60.29253906 -26.38183594 61.16113281 C-31.99510295 56.66722696 -33.96811779 46.69842301 -34.77246094 39.82128906 C-34.93938946 29.01266694 -32.87105312 19.06937421 -25.33496094 10.95800781 C-17.71279819 3.86151146 -10.50101239 0.07784651 0 0 Z " fill="#B07745" transform="translate(122.3818359375,55.8388671875)"/>
<path d="M0 0 C2.25663187 2.11847073 3.8771366 4.28909914 5.5625 6.875 C9.69549799 12.51373847 15.52108038 14.84036013 22 17 C24.92663084 17.09755436 27.82399498 17.13911256 30.75 17.125 C31.53632813 17.12886719 32.32265625 17.13273437 33.1328125 17.13671875 C37.85914047 17.12886771 42.33886903 16.78516377 47 16 C48.04970544 42.6269897 48.04970544 42.6269897 42 52 C41.38318359 53.01513672 41.38318359 53.01513672 40.75390625 54.05078125 C36.1540598 60.42504918 28.26358686 63.57880438 21 66 C12.77462485 66.69494167 6.1166797 66.32953898 -1 62 C-2.04800781 61.38125 -2.04800781 61.38125 -3.1171875 60.75 C-10.36277811 55.93783416 -14.92861651 48.38957605 -17 40 C-17.3113528 35.85137366 -17.32456838 31.72126277 -17.3125 27.5625 C-17.32861328 26.45583984 -17.34472656 25.34917969 -17.36132812 24.20898438 C-17.36565034 16.97791339 -17.14039574 11.23276032 -11.875 5.8125 C-8.09196326 3.42754205 -4.13168637 1.69228113 0 0 Z " fill="#EECEB2" transform="translate(353,310)"/>
<path d="M0 0 C5.28 0 10.56 0 16 0 C16 5.28 16 10.56 16 16 C21.28 16 26.56 16 32 16 C32 21.28 32 26.56 32 32 C26.72 32 21.44 32 16 32 C16 37.28 16 42.56 16 48 C10.72 48 5.44 48 0 48 C0 42.72 0 37.44 0 32 C-5.28 32 -10.56 32 -16 32 C-16 26.72 -16 21.44 -16 16 C-10.72 16 -5.44 16 0 16 C0 10.72 0 5.44 0 0 Z " fill="#FF826E" transform="translate(72,376)"/>
<path d="M0 0 C5.28 0 10.56 0 16 0 C16 5.28 16 10.56 16 16 C21.28 16 26.56 16 32 16 C32 21.28 32 26.56 32 32 C26.72 32 21.44 32 16 32 C16 37.28 16 42.56 16 48 C10.72 48 5.44 48 0 48 C0 42.72 0 37.44 0 32 C-5.28 32 -10.56 32 -16 32 C-16 26.72 -16 21.44 -16 16 C-10.72 16 -5.44 16 0 16 C0 10.72 0 5.44 0 0 Z " fill="#FF826E" transform="translate(264,72)"/>
<path d="M0 0 C0.886875 0.165 1.77375 0.33 2.6875 0.5 C11.05975127 1.69117396 19.66935599 1.30676769 28 0 C29.20190901 3.60572704 29.32670315 6.2102435 29 10 C26.46935752 14.28262574 23.66924752 16.35711661 19 18 C12.48429724 18.99484723 8.0279255 18.09487539 2.59375 14.38671875 C1 13 1 13 -1 10 C-1.19850603 6.29455413 -1.17664871 3.52994613 0 0 Z " fill="#E9CAAF" transform="translate(354,390)"/>
<path d="M0 0 C0.886875 0.165 1.77375 0.33 2.6875 0.5 C11.05975127 1.69117396 19.66935599 1.30676769 28 0 C29.20190901 3.60572704 29.32670315 6.2102435 29 10 C26.46935752 14.28262574 23.66924752 16.35711661 19 18 C12.48429724 18.99484723 8.0279255 18.09487539 2.59375 14.38671875 C1 13 1 13 -1 10 C-1.19850603 6.29455413 -1.17664871 3.52994613 0 0 Z " fill="#E9CAAF" transform="translate(130,182)"/>
<path d="M0 0 C5.28 0 10.56 0 16 0 C16 5.28 16 10.56 16 16 C10.72 16 5.44 16 0 16 C0 10.72 0 5.44 0 0 Z " fill="#000000" transform="translate(248,424)"/>
<path d="M0 0 C5.28 0 10.56 0 16 0 C16 5.28 16 10.56 16 16 C10.72 16 5.44 16 0 16 C0 10.72 0 5.44 0 0 Z " fill="#000000" transform="translate(216,424)"/>
<path d="M0 0 C5.28 0 10.56 0 16 0 C16 5.28 16 10.56 16 16 C10.72 16 5.44 16 0 16 C0 10.72 0 5.44 0 0 Z " fill="#000000" transform="translate(168,424)"/>
<path d="M0 0 C5.28 0 10.56 0 16 0 C16 5.28 16 10.56 16 16 C10.72 16 5.44 16 0 16 C0 10.72 0 5.44 0 0 Z " fill="#000000" transform="translate(136,424)"/>
<path d="M0 0 C5.28 0 10.56 0 16 0 C16 5.28 16 10.56 16 16 C10.72 16 5.44 16 0 16 C0 10.72 0 5.44 0 0 Z " fill="#FCD770" transform="translate(152,376)"/>
<path d="M0 0 C5.28 0 10.56 0 16 0 C16 5.28 16 10.56 16 16 C10.72 16 5.44 16 0 16 C0 10.72 0 5.44 0 0 Z " fill="#FCD770" transform="translate(152,344)"/>
<path d="M0 0 C5.28 0 10.56 0 16 0 C16 5.28 16 10.56 16 16 C10.72 16 5.44 16 0 16 C0 10.72 0 5.44 0 0 Z " fill="#000000" transform="translate(440,120)"/>
<path d="M0 0 C5.28 0 10.56 0 16 0 C16 5.28 16 10.56 16 16 C10.72 16 5.44 16 0 16 C0 10.72 0 5.44 0 0 Z " fill="#000000" transform="translate(408,120)"/>
<path d="M0 0 C5.28 0 10.56 0 16 0 C16 5.28 16 10.56 16 16 C10.72 16 5.44 16 0 16 C0 10.72 0 5.44 0 0 Z " fill="#000000" transform="translate(360,120)"/>
<path d="M0 0 C5.28 0 10.56 0 16 0 C16 5.28 16 10.56 16 16 C10.72 16 5.44 16 0 16 C0 10.72 0 5.44 0 0 Z " fill="#000000" transform="translate(328,120)"/>
<path d="M0 0 C5.28 0 10.56 0 16 0 C16 5.28 16 10.56 16 16 C10.72 16 5.44 16 0 16 C0 10.72 0 5.44 0 0 Z " fill="#FCD770" transform="translate(344,72)"/>
<path d="M0 0 C5.28 0 10.56 0 16 0 C16 5.28 16 10.56 16 16 C10.72 16 5.44 16 0 16 C0 10.72 0 5.44 0 0 Z " fill="#FCD770" transform="translate(344,40)"/>
<path d="M0 0 C4.0743356 0.84881992 5.54405875 2.30225596 8 5.625 C8.625 8.625 8.625 8.625 8 11.625 C5.54405875 14.94774404 4.0743356 16.40118008 0 17.25 C-4.0743356 16.40118008 -5.54405875 14.94774404 -8 11.625 C-8.625 8.625 -8.625 8.625 -8 5.625 C-5.54405875 2.30225596 -4.0743356 0.84881992 0 0 Z " fill="#070808" transform="translate(240,391.375)"/>
<path d="M0 0 C4.0743356 0.84881992 5.54405875 2.30225596 8 5.625 C8.625 8.625 8.625 8.625 8 11.625 C5.54405875 14.94774404 4.0743356 16.40118008 0 17.25 C-4.0743356 16.40118008 -5.54405875 14.94774404 -8 11.625 C-8.625 8.625 -8.625 8.625 -8 5.625 C-5.54405875 2.30225596 -4.0743356 0.84881992 0 0 Z " fill="#070808" transform="translate(256,375.375)"/>
<path d="M0 0 C4.0743356 0.84881992 5.54405875 2.30225596 8 5.625 C8.625 8.625 8.625 8.625 8 11.625 C5.54405875 14.94774404 4.0743356 16.40118008 0 17.25 C-4.0743356 16.40118008 -5.54405875 14.94774404 -8 11.625 C-8.625 8.625 -8.625 8.625 -8 5.625 C-5.54405875 2.30225596 -4.0743356 0.84881992 0 0 Z " fill="#070808" transform="translate(224,375.375)"/>
<path d="M0 0 C4.0743356 0.84881992 5.54405875 2.30225596 8 5.625 C8.625 8.625 8.625 8.625 8 11.625 C5.54405875 14.94774404 4.0743356 16.40118008 0 17.25 C-4.0743356 16.40118008 -5.54405875 14.94774404 -8 11.625 C-8.625 8.625 -8.625 8.625 -8 5.625 C-5.54405875 2.30225596 -4.0743356 0.84881992 0 0 Z " fill="#070808" transform="translate(240,359.375)"/>
<path d="M0 0 C4.0743356 0.84881992 5.54405875 2.30225596 8 5.625 C8.625 8.625 8.625 8.625 8 11.625 C5.54405875 14.94774404 4.0743356 16.40118008 0 17.25 C-4.0743356 16.40118008 -5.54405875 14.94774404 -8 11.625 C-8.625 8.625 -8.625 8.625 -8 5.625 C-5.54405875 2.30225596 -4.0743356 0.84881992 0 0 Z " fill="#070808" transform="translate(432,87.375)"/>
<path d="M0 0 C4.0743356 0.84881992 5.54405875 2.30225596 8 5.625 C8.625 8.625 8.625 8.625 8 11.625 C5.54405875 14.94774404 4.0743356 16.40118008 0 17.25 C-4.0743356 16.40118008 -5.54405875 14.94774404 -8 11.625 C-8.625 8.625 -8.625 8.625 -8 5.625 C-5.54405875 2.30225596 -4.0743356 0.84881992 0 0 Z " fill="#070808" transform="translate(448,71.375)"/>
<path d="M0 0 C4.0743356 0.84881992 5.54405875 2.30225596 8 5.625 C8.625 8.625 8.625 8.625 8 11.625 C5.54405875 14.94774404 4.0743356 16.40118008 0 17.25 C-4.0743356 16.40118008 -5.54405875 14.94774404 -8 11.625 C-8.625 8.625 -8.625 8.625 -8 5.625 C-5.54405875 2.30225596 -4.0743356 0.84881992 0 0 Z " fill="#070808" transform="translate(416,71.375)"/>
<path d="M0 0 C4.0743356 0.84881992 5.54405875 2.30225596 8 5.625 C8.625 8.625 8.625 8.625 8 11.625 C5.54405875 14.94774404 4.0743356 16.40118008 0 17.25 C-4.0743356 16.40118008 -5.54405875 14.94774404 -8 11.625 C-8.625 8.625 -8.625 8.625 -8 5.625 C-5.54405875 2.30225596 -4.0743356 0.84881992 0 0 Z " fill="#070808" transform="translate(432,55.375)"/>
</svg>
