<?xml version="1.0" encoding="UTF-8"?>
<svg version="1.1" xmlns="http://www.w3.org/2000/svg" width="256" height="256">
<path d="M0 0 C44.88 0 89.76 0 136 0 C136 2.64 136 5.28 136 8 C136.7628833 7.96970703 137.5257666 7.93941406 138.31176758 7.90820312 C156.73281413 7.20650038 175.14810758 6.87248007 193.58261108 6.82275391 C195.84989701 6.81595089 198.11717542 6.80573052 200.38442993 6.79199219 C203.61052694 6.77397245 206.83635818 6.76983173 210.0625 6.76953125 C211.01867722 6.76238602 211.97485443 6.75524078 212.96000671 6.74787903 C221.84116466 6.77745787 231.63259 7.5392696 239 13 C247.40671563 21.85441055 249.14270263 30.33886246 249.203125 42.203125 C249.20882507 43.08095642 249.21452515 43.95878784 249.22039795 44.86322021 C249.2298126 46.71560474 249.23636782 48.56800574 249.24023438 50.42041016 C249.24992128 53.22719164 249.2809706 56.03323432 249.3125 58.83984375 C249.44942328 81.53067287 249.44942328 81.53067287 240.9375 90.30859375 C234.46989042 95.95471259 227.48337663 97.23076543 219 97 C211.28948159 96.12173089 206.80130865 92.57178723 201.421875 87.15625 C195.83746503 82.1843237 190.92369486 81.54963885 183.76171875 81.6015625 C182.88151566 81.59869232 182.00131256 81.59582214 181.09443665 81.59286499 C179.23783727 81.59083011 177.38121616 81.59631955 175.5246582 81.60888672 C172.70669663 81.62489098 169.8901818 81.60904842 167.07226562 81.58984375 C165.26041354 81.59182741 163.44856235 81.59567362 161.63671875 81.6015625 C160.38939217 81.59245346 160.38939217 81.59245346 159.11686707 81.5831604 C153.55067579 81.64889 147.92796232 82.2114113 143 85 C141.90205054 86.91915595 141.90205054 86.91915595 141 89 C140.01 89.99 139.02 90.98 138 92 C137.67 95.96 137.34 99.92 137 104 C173.63 104 210.26 104 248 104 C248 151.85 248 199.7 248 249 C227.890625 249.04125 207.78125 249.0825 187.0625 249.125 C180.72297119 249.14320801 174.38344238 249.16141602 167.85180664 249.18017578 C160.08483887 249.18920898 160.08483887 249.18920898 156.4438324 249.19088745 C153.91172075 249.19394996 151.37961194 249.20096612 148.84751892 249.21115112 C145.00254278 249.22583817 141.15774423 249.22781037 137.31274414 249.22705078 C135.63285573 249.23784511 135.63285573 249.23784511 133.91903019 249.2488575 C120.08370406 249.21238859 111.83792215 245.85485637 101.76171875 236.453125 C97.76999791 233.16061912 92.92181264 233.80401136 88.01953125 233.76171875 C87.13271164 233.753647 86.24589203 233.74557526 85.3321991 233.73725891 C83.45350086 233.72342819 81.5747776 233.71270151 79.69604492 233.70483398 C76.84048951 233.68766825 73.98610644 233.64377922 71.13085938 233.59960938 C69.30209181 233.58947767 67.47331444 233.58096306 65.64453125 233.57421875 C64.79840775 233.55671066 63.95228424 233.53920258 63.08052063 233.52116394 C56.05344169 233.54652678 50.95858636 235.52580498 45.56640625 240.03515625 C44.90511719 240.70417969 44.24382813 241.37320313 43.5625 242.0625 C38.13985038 247.06587259 33.32748495 248.68309667 26.0625 249.375 C18.0374895 248.97614262 11.51448603 246.53697753 5.69140625 240.9609375 C-0.71619508 233.53226344 -1.15514064 225.21886585 -1.203125 215.796875 C-1.21167511 214.48012787 -1.21167511 214.48012787 -1.22039795 213.13677979 C-1.2298126 211.28439526 -1.23636782 209.43199426 -1.24023438 207.57958984 C-1.24992128 204.77280836 -1.2809706 201.96676568 -1.3125 199.16015625 C-1.39414866 185.827576 -1.09684717 176.14546864 8.59765625 166.13671875 C16.30383558 159.28260478 24.74165858 158.8129548 34.68920898 158.97827148 C35.52903824 158.98787903 36.36886749 158.99748657 37.23414612 159.00738525 C39.98821989 159.04015799 42.74212404 159.08057183 45.49609375 159.12109375 C47.41422441 159.14541615 49.33236121 159.16925862 51.25050354 159.19264221 C56.2827355 159.2552723 61.31485782 159.32439795 66.34698486 159.39489746 C71.4884342 159.46577199 76.62996086 159.53047429 81.77148438 159.59570312 C91.84774365 159.7244436 101.92388227 159.86062018 112 160 C112 154.72 112 149.44 112 144 C75.04 144 38.08 144 0 144 C0 96.48 0 48.96 0 0 Z " fill="#040403" transform="translate(4,4)"/>
<path d="M0 0 C0.9029631 0.0028299 1.80592621 0.00565979 2.73625183 0.00857544 C5.60946109 0.01973643 8.4823543 0.04483353 11.35546875 0.0703125 C13.30793819 0.08034757 15.26041254 0.0894725 17.21289062 0.09765625 C21.98980194 0.11795762 26.76603313 0.15711399 31.54296875 0.1953125 C31.54296875 10.7553125 31.54296875 21.3153125 31.54296875 32.1953125 C39.46296875 32.1953125 47.38296875 32.1953125 55.54296875 32.1953125 C55.54296875 21.6353125 55.54296875 11.0753125 55.54296875 0.1953125 C60.95117123 0.12617355 66.35781983 0.06652166 71.76611328 0.03051758 C73.60308041 0.01549754 75.44001209 -0.00492459 77.27685547 -0.03100586 C79.92814929 -0.06768952 82.57896607 -0.08448188 85.23046875 -0.09765625 C86.04225586 -0.11314011 86.85404297 -0.12862396 87.69042969 -0.14457703 C94.41408338 -0.14652976 99.62427336 1.31437547 105.35546875 5.0078125 C111.58548441 11.23782816 111.69952735 18.71161876 111.7109375 26.96875 C111.7142659 27.8107193 111.7175943 28.6526886 111.72102356 29.52017212 C111.72607345 31.29697119 111.72843249 33.0737797 111.72827148 34.85058594 C111.73045573 37.55419713 111.74862579 40.25739851 111.76757812 42.9609375 C111.77051299 44.69270695 111.77249716 46.42447832 111.7734375 48.15625 C111.78062302 48.95751312 111.78780853 49.75877625 111.79521179 50.58432007 C111.77055096 56.70932718 111.31203564 62.09155728 107.23046875 66.9453125 C106.34359375 67.6878125 105.45671875 68.4303125 104.54296875 69.1953125 C103.84171875 69.7934375 103.14046875 70.3915625 102.41796875 71.0078125 C97.83731662 72.89982099 93.42139155 72.82408699 88.54296875 72.1953125 C83.57047266 69.80851438 79.71475088 65.74100465 75.69140625 62 C72.03758053 58.9307864 69.30242692 57.94642467 64.53417969 57.90478516 C63.539245 57.89202545 62.5443103 57.87926575 61.51922607 57.86611938 C60.44940491 57.86389374 59.37958374 57.86166809 58.27734375 57.859375 C57.16997864 57.8527182 56.06261353 57.8460614 54.92169189 57.83920288 C52.57818258 57.82907897 50.23464444 57.82438578 47.89111328 57.82470703 C44.32014888 57.8203457 40.7504323 57.78405417 37.1796875 57.74609375 C34.8997438 57.74022308 32.61979424 57.73625536 30.33984375 57.734375 C29.27811951 57.72000397 28.21639526 57.70563293 27.12249756 57.69082642 C19.41609279 57.7378909 14.02219025 59.1822612 8.15234375 64.265625 C7.53875 64.94367188 6.92515625 65.62171875 6.29296875 66.3203125 C3.12216118 69.79247781 0.78047664 71.82885452 -3.9375 72.6015625 C-10.37008072 72.82433586 -14.29522011 71.76730627 -19.58203125 68.09375 C-24.84430226 62.7657006 -24.91291796 57.09596261 -24.890625 50.046875 C-24.89848778 48.58983658 -24.89848778 48.58983658 -24.9065094 47.10336304 C-24.91291519 45.05426995 -24.91161134 43.00514001 -24.90307617 40.95605469 C-24.89457731 37.83721701 -24.92333044 34.720219 -24.95507812 31.6015625 C-24.95669072 29.60416721 -24.95611149 27.60676871 -24.953125 25.609375 C-24.96435898 24.68516754 -24.97559296 23.76096008 -24.98716736 22.80874634 C-24.91659855 16.18164216 -23.65637209 10.65152311 -19.04515076 5.67007446 C-12.99844919 0.32037374 -7.69962873 -0.09124945 0 0 Z " fill="#A6AEB9" transform="translate(36.45703125,171.8046875)"/>
<path d="M0 0 C0.9029631 0.0028299 1.80592621 0.00565979 2.73625183 0.00857544 C5.60946109 0.01973643 8.4823543 0.04483353 11.35546875 0.0703125 C13.30793819 0.08034757 15.26041254 0.0894725 17.21289062 0.09765625 C21.98980194 0.11795762 26.76603313 0.15711399 31.54296875 0.1953125 C31.54296875 10.7553125 31.54296875 21.3153125 31.54296875 32.1953125 C39.46296875 32.1953125 47.38296875 32.1953125 55.54296875 32.1953125 C55.54296875 21.6353125 55.54296875 11.0753125 55.54296875 0.1953125 C60.95117123 0.12617355 66.35781983 0.06652166 71.76611328 0.03051758 C73.60308041 0.01549754 75.44001209 -0.00492459 77.27685547 -0.03100586 C79.92814929 -0.06768952 82.57896607 -0.08448188 85.23046875 -0.09765625 C86.04225586 -0.11314011 86.85404297 -0.12862396 87.69042969 -0.14457703 C94.41408338 -0.14652976 99.62427336 1.31437547 105.35546875 5.0078125 C111.5662009 11.21854465 111.70245625 18.69691243 111.74609375 26.93359375 C111.75179382 27.77319138 111.7574939 28.612789 111.7633667 29.47782898 C111.77278856 31.25042471 111.77933946 33.02303774 111.78320312 34.7956543 C111.79289897 37.48843388 111.82394466 40.18044644 111.85546875 42.87304688 C111.86200085 44.601558 111.86725051 46.33007455 111.87109375 48.05859375 C111.88344055 48.85469559 111.89578735 49.65079742 111.9085083 50.47102356 C111.88187888 57.25075877 110.60444276 62.76383033 106.10546875 68.0703125 C101.19181215 72.14505212 97.51653072 72.65004017 91.21484375 72.5 C84.717373 71.75906035 80.28222165 66.26865292 75.69140625 62 C72.03758053 58.9307864 69.30242692 57.94642467 64.53417969 57.90478516 C63.539245 57.89202545 62.5443103 57.87926575 61.51922607 57.86611938 C60.44940491 57.86389374 59.37958374 57.86166809 58.27734375 57.859375 C57.16997864 57.8527182 56.06261353 57.8460614 54.92169189 57.83920288 C52.57818258 57.82907897 50.23464444 57.82438578 47.89111328 57.82470703 C44.32014888 57.8203457 40.7504323 57.78405417 37.1796875 57.74609375 C34.8997438 57.74022308 32.61979424 57.73625536 30.33984375 57.734375 C29.27811951 57.72000397 28.21639526 57.70563293 27.12249756 57.69082642 C19.44360917 57.73772285 14.00863262 59.14920661 8.1875 64.265625 C7.58292969 64.94367188 6.97835937 65.62171875 6.35546875 66.3203125 C3.00267733 70.06132188 0.16335919 71.74411944 -4.81640625 72.6015625 C-10.8985609 72.84007837 -14.54769176 71.52331672 -19.546875 68.09375 C-24.07397255 63.59442605 -24.81093086 58.9686496 -24.89952087 52.85977173 C-24.89658524 51.93151581 -24.8936496 51.00325989 -24.890625 50.046875 C-24.89848778 48.58983658 -24.89848778 48.58983658 -24.9065094 47.10336304 C-24.91291519 45.05426995 -24.91161134 43.00514001 -24.90307617 40.95605469 C-24.89457731 37.83721701 -24.92333044 34.720219 -24.95507812 31.6015625 C-24.95669072 29.60416721 -24.95611149 27.60676871 -24.953125 25.609375 C-24.96435898 24.68516754 -24.97559296 23.76096008 -24.98716736 22.80874634 C-24.91659855 16.18164216 -23.65637209 10.65152311 -19.04515076 5.67007446 C-12.99844919 0.32037374 -7.69962873 -0.09124945 0 0 Z " fill="#A6AEB9" transform="translate(132.45703125,19.8046875)"/>
<path d="M0 0 C34.32 0 68.64 0 104 0 C104 42.24 104 84.48 104 128 C98.72 128 93.44 128 88 128 C87.98582031 126.16695313 87.97164063 124.33390625 87.95703125 122.4453125 C87.9101057 120.00518394 87.86185848 117.56508056 87.8125 115.125 C87.80669922 113.92101562 87.80089844 112.71703125 87.79492188 111.4765625 C87.58416631 102.85900171 86.29654456 96.08829486 80.62744141 89.37451172 C76.86958953 85.86210221 72.52070309 84.56055007 67.6875 83.25 C60.08039033 81.08039033 60.08039033 81.08039033 59 80 C58.45755323 76.82281175 58.52014266 74.75595987 60.26953125 72 C61.31691493 70.654456 62.39040792 69.32872109 63.4921875 68.02734375 C67.85033101 62.16756012 67.32953625 55.94986781 67.30273438 48.94921875 C67.41174974 44.48310554 67.49040307 42.61331298 70.4375 39.06640625 C71.283125 38.38449219 72.12875 37.70257813 73 37 C74.69882448 34.50240018 74.69882448 34.50240018 76 32 C76.34804687 31.43410156 76.69609375 30.86820313 77.0546875 30.28515625 C78.35467296 27.14262941 78.37642295 24.39157243 78.4375 21 C78.47746094 19.783125 78.51742187 18.56625 78.55859375 17.3125 C78.29184603 13.87574638 78.29184603 13.87574638 75.78515625 11.625 C70.66782868 8.63929415 65.38819403 8.81731799 59.5859375 8.76171875 C58.77565094 8.753647 57.96536438 8.74557526 57.13052368 8.73725891 C55.41760365 8.72346346 53.70465665 8.71272112 51.99169922 8.70483398 C50.25789201 8.6933486 48.52411921 8.67295159 46.79052734 8.64331055 C30.82186417 8.08113669 30.82186417 8.08113669 16.81811523 14.85009766 C11.46455685 20.26044819 9.07688572 26.68166769 8.4375 34.1875 C8.6941722 41.12987178 12.11749135 49.61287952 16.62890625 54.9140625 C17.14324219 55.37554687 17.65757812 55.83703125 18.1875 56.3125 C21.44842684 59.42849676 22.03654668 61.60846909 23.2109375 65.83203125 C24.05292059 68.14540062 25.01414122 69.40663493 26.6875 71.1875 C29 74 29 74 29.3125 77.375 C29.1578125 78.674375 29.1578125 78.674375 29 80 C24.36224637 81.88654385 21.04994191 83.21225675 16 83 C15.91363281 82.03320312 15.82726562 81.06640625 15.73828125 80.0703125 C14.69249435 70.37999351 13.12811317 62.63154161 6.4375 55.125 C0.04322065 50.45353167 -8.37998726 49.08857325 -16 48 C-16 42.72 -16 37.44 -16 32 C-10.72 32 -5.44 32 0 32 C0 21.44 0 10.88 0 0 Z " fill="#E3E6EA" transform="translate(140,116)"/>
<path d="M0 0 C36.63 0 73.26 0 111 0 C108.66232161 1.55845226 106.84093666 2.50086433 104.3125 3.5625 C98.69232227 6.29973471 93.80081552 11.39836895 91 17 C88.52722205 15.90098758 86.75126419 14.78487714 84.6875 13 C78.0797939 8.08263732 70.08363474 8.62747568 62.20385742 8.62939453 C60.20279541 8.62503334 58.2018919 8.5880313 56.20117188 8.55078125 C47.28826399 8.52405589 39.80721845 9.27929108 32.59765625 14.859375 C28.14284872 20.34570285 25.52814231 25.15210606 24.5625 32.1875 C25.59265086 41.16452894 28.07863782 50.67516657 35.0625 56.8125 C37.52403919 59.59165715 38.10453333 62.24476314 39.140625 65.76171875 C40.0320001 68.08334572 40.99832041 69.38918802 42.6875 71.1875 C45 74 45 74 45.3125 77.375 C45.1578125 78.674375 45.1578125 78.674375 45 80 C44.45472656 80.17015625 43.90945312 80.3403125 43.34765625 80.515625 C29.62245054 84.71490651 29.62245054 84.71490651 19.75 94.5 C17.38507146 99.22985707 16.86449174 102.80624078 16.68359375 108.078125 C16.64169922 109.23828125 16.59980469 110.3984375 16.55664062 111.59375 C16.51732422 112.8003125 16.47800781 114.006875 16.4375 115.25 C16.39431641 116.47203125 16.35113281 117.6940625 16.30664062 118.953125 C16.20062717 121.96861881 16.0998156 124.98429468 16 128 C10.72 128 5.44 128 0 128 C0 85.76 0 43.52 0 0 Z " fill="#E3E6EA" transform="translate(12,12)"/>
<path d="M0 0 C2.30743136 1.45321298 4.00628797 3.09901877 6 5 C11.23093207 6.74364402 15.38610555 6.53445474 20.3125 4.125 C22.64280949 2.88888298 24.11366155 1.88633845 26 0 C31.84213817 -0.5036326 36.87498478 -0.01782921 42 3 C46.84404799 7.34035273 49.79029791 11.85802296 50.23046875 18.453125 C50.21628906 19.70609375 50.20210938 20.9590625 50.1875 22.25 C50.18105469 23.49265625 50.17460938 24.7353125 50.16796875 26.015625 C49.98493446 30.35736852 49.47989123 34.68097896 49 39 C25.24 39 1.48 39 -23 39 C-23 11.11111111 -23 11.11111111 -18.3125 4.6875 C-12.72648095 0.61121583 -6.83019888 -0.88131598 0 0 Z " fill="#FC806C" transform="translate(59,101)"/>
<path d="M0 0 C2.37133554 1.43204029 3.99258939 3.04038488 6 5 C11.23093207 6.74364402 15.38610555 6.53445474 20.3125 4.125 C22.64280949 2.88888298 24.11366155 1.88633845 26 0 C32.49832803 -0.68403453 37.43115256 0.54603928 43 4 C47.47966776 7.9686377 49.83314868 12.50005813 50.23046875 18.453125 C50.21628906 19.70609375 50.20210938 20.9590625 50.1875 22.25 C50.18105469 23.49265625 50.17460937 24.7353125 50.16796875 26.015625 C49.98493446 30.35736852 49.47989123 34.68097896 49 39 C25.9 39 2.8 39 -21 39 C-19 33 -19 33 -17.41796875 29.34375 C-15.46015654 24.16891597 -15.43832146 18.97862586 -15.3125 13.5 C-15.27833984 12.48679688 -15.24417969 11.47359375 -15.20898438 10.4296875 C-15.12721474 7.95323583 -15.0578375 5.47710651 -15 3 C-9.79497353 0.18808915 -5.86860312 -1.1674103 0 0 Z " fill="#5AD3B0" transform="translate(171,205)"/>
<path d="M0 0 C2.7632812 1.38962696 3.35528366 2.2798922 5 5 C5 5.99 5 6.98 5 8 C6.1446875 8.1546875 6.1446875 8.1546875 7.3125 8.3125 C10.3629545 9.09284882 11.19428812 9.45958586 13 12 C13.46875 15.3984375 13.46875 15.3984375 13.5 19.375 C13.5309375 20.68210938 13.561875 21.98921875 13.59375 23.3359375 C12.86810221 27.81394819 11.56681893 29.28292323 8 32 C7.01 32 6.02 32 5 32 C4.9175 32.763125 4.835 33.52625 4.75 34.3125 C3.81040909 37.67936743 3.00809284 38.28179313 0 40 C-5.14576844 40.73598595 -11.26574921 41.37502785 -16.02734375 38.98046875 C-17.375 37.6875 -17.375 37.6875 -19 35 C-19 34.01 -19 33.02 -19 32 C-19.763125 31.9175 -20.52625 31.835 -21.3125 31.75 C-24.67936743 30.81040909 -25.28179313 30.00809284 -27 27 C-27.73598595 21.85423156 -28.37502785 15.73425079 -25.98046875 10.97265625 C-24.6875 9.625 -24.6875 9.625 -22 8 C-21.01 8 -20.02 8 -19 8 C-18.9175 7.236875 -18.835 6.47375 -18.75 5.6875 C-16.48001945 -2.44659696 -6.74579507 -0.86811294 0 0 Z " fill="#040404" transform="translate(47,180)"/>
<path d="M0 0 C2.7632812 1.38962696 3.35528366 2.2798922 5 5 C5 5.99 5 6.98 5 8 C6.1446875 8.1546875 6.1446875 8.1546875 7.3125 8.3125 C10.3629545 9.09284882 11.19428812 9.45958586 13 12 C13.46875 15.3984375 13.46875 15.3984375 13.5 19.375 C13.5309375 20.68210937 13.561875 21.98921875 13.59375 23.3359375 C12.86810221 27.81394819 11.56681893 29.28292323 8 32 C7.01 32 6.02 32 5 32 C4.9175 32.763125 4.835 33.52625 4.75 34.3125 C3.81040909 37.67936743 3.00809284 38.28179313 0 40 C-5.14576844 40.73598595 -11.26574921 41.37502785 -16.02734375 38.98046875 C-17.375 37.6875 -17.375 37.6875 -19 35 C-19 34.01 -19 33.02 -19 32 C-19.763125 31.9175 -20.52625 31.835 -21.3125 31.75 C-24.67936743 30.81040909 -25.28179313 30.00809284 -27 27 C-27.73598595 21.85423156 -28.37502785 15.73425079 -25.98046875 10.97265625 C-24.6875 9.625 -24.6875 9.625 -22 8 C-21.01 8 -20.02 8 -19 8 C-18.9175 7.236875 -18.835 6.47375 -18.75 5.6875 C-16.48001945 -2.44659696 -6.74579507 -0.86811294 0 0 Z " fill="#040404" transform="translate(143,28)"/>
<path d="M0 0 C0.66 0 1.32 0 2 0 C2.03738281 0.6290625 2.07476562 1.258125 2.11328125 1.90625 C2.84270904 11.40311383 5.17526492 19.43606141 12.3125 26.1875 C20.11843349 31.45196677 23.68606461 31 34 31 C34 44.53 34 58.06 34 72 C28.72 72 23.44 72 18 72 C17.98582031 70.16695313 17.97164062 68.33390625 17.95703125 66.4453125 C17.9101057 64.00518394 17.86185848 61.56508056 17.8125 59.125 C17.80669922 57.92101562 17.80089844 56.71703125 17.79492188 55.4765625 C17.57187319 46.35634977 15.58181145 40.04106796 10.3125 32.625 C4.10080812 28.26002733 -3.82392979 26.28802238 -11 24 C-11.375 21.4375 -11.375 21.4375 -11 18 C-9.63102917 16.17470556 -8.09708244 14.59218926 -6.52734375 12.9375 C-4.34492747 10.16901286 -3.54537872 7.28759637 -2.640625 3.91796875 C-2 2 -2 2 0 0 Z " fill="#E0E3E7" transform="translate(98,68)"/>
<path d="M0 0 C1.22125328 -0.00956978 1.22125328 -0.00956978 2.46717834 -0.01933289 C3.34224533 -0.02044571 4.21731232 -0.02155853 5.11889648 -0.02270508 C6.47047096 -0.02769768 6.47047096 -0.02769768 7.84934998 -0.03279114 C9.75323984 -0.03785223 11.65713857 -0.04019972 13.56103516 -0.04003906 C16.48216206 -0.04223046 19.40291429 -0.06040812 22.32397461 -0.0793457 C24.17228061 -0.08227874 26.0205884 -0.08426414 27.86889648 -0.08520508 C29.18453331 -0.09598335 29.18453331 -0.09598335 30.52674866 -0.10697937 C36.69866063 -0.08356593 36.69866063 -0.08356593 38.92749023 2.14526367 C39.6423454 8.10239005 38.2231762 12.2884633 34.92749023 17.14526367 C30.34724629 22.37228558 25.00179956 23.88472898 18.23999023 24.45776367 C14.67679603 24.12161328 13.21871378 23.89473193 10.92749023 21.14526367 C10.42749023 18.14526367 10.42749023 18.14526367 10.92749023 15.14526367 C12.92749023 13.27026367 12.92749023 13.27026367 14.92749023 12.14526367 C14.59749023 9.83526367 14.26749023 7.52526367 13.92749023 5.14526367 C8.68325834 7.51792814 8.68325834 7.51792814 5.61499023 12.08276367 C3.33431643 16.22176429 0.56820074 16.95811211 -3.62719727 18.86010742 C-8.30159391 21.31677914 -11.02670379 25.30972228 -13.07250977 30.14526367 C-15.07250977 29.14526367 -15.07250977 29.14526367 -16.19750977 27.20776367 C-17.83819469 21.46536644 -17.6320427 16.1200858 -16.01000977 10.39526367 C-12.28593087 4.14842165 -7.46677911 0.03976973 0 0 Z " fill="#AD7443" transform="translate(173.072509765625,131.854736328125)"/>
<path d="M0 0 C3.98678942 0.33110624 6.77196744 1.84057291 10.125 3.9375 C10.97320312 4.46214844 11.82140625 4.98679687 12.6953125 5.52734375 C14.47621096 6.66530768 16.2415249 7.82768327 18 9 C18.33295959 11.98463774 18.46361191 14.70362075 18.4375 17.6875 C18.4674707 18.87375977 18.4674707 18.87375977 18.49804688 20.08398438 C18.49326497 25.87487409 17.34810847 29.25835449 14 34 C9.21054576 37.73577431 5.41921449 38.6688104 -0.640625 38.375 C-5.66123275 37.57702261 -8.75728283 34.67878864 -11.875 30.875 C-15.82523666 24.28706538 -14.35466701 15.37707378 -14 8 C-13.15695313 7.59007812 -12.31390625 7.18015625 -11.4453125 6.7578125 C-10.34960938 6.21898437 -9.25390625 5.68015625 -8.125 5.125 C-6.48917969 4.32449219 -6.48917969 4.32449219 -4.8203125 3.5078125 C-1.96117453 2.15464063 -1.96117453 2.15464063 0 0 Z " fill="#EACBAF" transform="translate(70,46)"/>
<path d="M0 0 C1.30195312 -0.01611328 2.60390625 -0.03222656 3.9453125 -0.04882812 C17.85896366 -0.05592693 17.85896366 -0.05592693 23.5859375 5.06640625 C24.05257812 5.66324219 24.51921875 6.26007812 25 6.875 C25.48210937 7.47441406 25.96421875 8.07382812 26.4609375 8.69140625 C29.78069421 13.31455738 29.05294648 18.83478501 28.625 24.3125 C27.87355552 26.68916161 27.01725333 28.22412001 25.625 30.3125 C25.295 30.3125 24.965 30.3125 24.625 30.3125 C24.3775 28.7346875 24.3775 28.7346875 24.125 27.125 C23.17107447 23.80293768 22.00024713 22.53717817 19.0625 20.75 C17.5854772 19.93360921 16.10617512 19.12133283 14.625 18.3125 C13.0514543 17.3087765 11.48885329 16.28769451 9.9375 15.25 C9.23238281 14.78464844 8.52726562 14.31929687 7.80078125 13.83984375 C5.32076146 12.09893219 2.97400613 10.22543845 0.625 8.3125 C0.01914063 8.83199219 -0.58671875 9.35148437 -1.2109375 9.88671875 C-6.31073569 14.13132002 -11.17608536 17.50816716 -17.24609375 20.20703125 C-19.4536279 21.3533288 -20.81874492 22.37926388 -22.375 24.3125 C-23.1019226 27.42089021 -23.1019226 27.42089021 -23.375 30.3125 C-25.375 29.3125 -25.375 29.3125 -26.5 27.375 C-28.15481163 21.5831593 -27.97373019 16.23473902 -26.1875 10.5 C-19.87841753 -0.59528296 -11.58642461 -0.0285099 0 0 Z " fill="#AC7443" transform="translate(71.375,27.6875)"/>
<path d="M0 0 C3.45520354 1.26690796 5.43788003 3.43788003 8 6 C11.53897425 8.32143724 14.58766355 8.20824673 18.75 8.125 C19.92046875 8.10695312 21.0909375 8.08890625 22.296875 8.0703125 C23.18890625 8.04710937 24.0809375 8.02390625 25 8 C25.77439664 23.50944386 25.77439664 23.50944386 21 29 C15.85531428 32.790222 11.27400882 33.61711562 5 33 C-0.16472622 31.89327295 -3.06232929 28.1740954 -6 24 C-7.19108227 20.4267532 -7.27879922 17.39163059 -7.375 13.625 C-7.42398438 12.31789062 -7.47296875 11.01078125 -7.5234375 9.6640625 C-6.87952512 5.15667587 -5.4952668 3.80251122 -2 1 C-1.34 0.67 -0.68 0.34 0 0 Z " fill="#EBCBAF" transform="translate(175,155)"/>
<path d="M0 0 C2.64 0 5.28 0 8 0 C8 2.64 8 5.28 8 8 C10.64 8 13.28 8 16 8 C16 10.64 16 13.28 16 16 C13.36 16 10.72 16 8 16 C8 18.64 8 21.28 8 24 C5.36 24 2.72 24 0 24 C0 21.36 0 18.72 0 16 C-2.64 16 -5.28 16 -8 16 C-8 13.36 -8 10.72 -8 8 C-5.36 8 -2.72 8 0 8 C0 5.36 0 2.72 0 0 Z " fill="#FF826E" transform="translate(36,188)"/>
<path d="M0 0 C2.64 0 5.28 0 8 0 C8 2.64 8 5.28 8 8 C10.64 8 13.28 8 16 8 C16 10.64 16 13.28 16 16 C13.36 16 10.72 16 8 16 C8 18.64 8 21.28 8 24 C5.36 24 2.72 24 0 24 C0 21.36 0 18.72 0 16 C-2.64 16 -5.28 16 -8 16 C-8 13.36 -8 10.72 -8 8 C-5.36 8 -2.72 8 0 8 C0 5.36 0 2.72 0 0 Z " fill="#FF826E" transform="translate(132,36)"/>
<path d="M0 0 C4.62 0 9.24 0 14 0 C14 2.31 14 4.62 14 7 C10.28986601 9.47342266 8.38939738 9.38503486 4 9 C1.5625 7.875 1.5625 7.875 0 6 C0 4.02 0 2.04 0 0 Z " fill="#D9BCA3" transform="translate(177,195)"/>
<path d="M0 0 C4.62 0 9.24 0 14 0 C14 2.31 14 4.62 14 7 C10.28986601 9.47342266 8.38939738 9.38503486 4 9 C1.5625 7.875 1.5625 7.875 0 6 C0 4.02 0 2.04 0 0 Z " fill="#D9BCA3" transform="translate(65,91)"/>
<path d="M0 0 C2.64 0 5.28 0 8 0 C8 2.64 8 5.28 8 8 C5.36 8 2.72 8 0 8 C0 5.36 0 2.72 0 0 Z " fill="#000000" transform="translate(124,212)"/>
<path d="M0 0 C2.64 0 5.28 0 8 0 C8 2.64 8 5.28 8 8 C5.36 8 2.72 8 0 8 C0 5.36 0 2.72 0 0 Z " fill="#000000" transform="translate(108,212)"/>
<path d="M0 0 C2.64 0 5.28 0 8 0 C8 2.64 8 5.28 8 8 C5.36 8 2.72 8 0 8 C0 5.36 0 2.72 0 0 Z " fill="#000000" transform="translate(84,212)"/>
<path d="M0 0 C2.64 0 5.28 0 8 0 C8 2.64 8 5.28 8 8 C5.36 8 2.72 8 0 8 C0 5.36 0 2.72 0 0 Z " fill="#000000" transform="translate(68,212)"/>
<path d="M0 0 C2.64 0 5.28 0 8 0 C8 2.64 8 5.28 8 8 C5.36 8 2.72 8 0 8 C0 5.36 0 2.72 0 0 Z " fill="#FCD770" transform="translate(76,188)"/>
<path d="M0 0 C2.64 0 5.28 0 8 0 C8 2.64 8 5.28 8 8 C5.36 8 2.72 8 0 8 C0 5.36 0 2.72 0 0 Z " fill="#FCD770" transform="translate(76,172)"/>
<path d="M0 0 C2.64 0 5.28 0 8 0 C8 2.64 8 5.28 8 8 C5.36 8 2.72 8 0 8 C0 5.36 0 2.72 0 0 Z " fill="#000000" transform="translate(220,60)"/>
<path d="M0 0 C2.64 0 5.28 0 8 0 C8 2.64 8 5.28 8 8 C5.36 8 2.72 8 0 8 C0 5.36 0 2.72 0 0 Z " fill="#000000" transform="translate(204,60)"/>
<path d="M0 0 C2.64 0 5.28 0 8 0 C8 2.64 8 5.28 8 8 C5.36 8 2.72 8 0 8 C0 5.36 0 2.72 0 0 Z " fill="#000000" transform="translate(180,60)"/>
<path d="M0 0 C2.64 0 5.28 0 8 0 C8 2.64 8 5.28 8 8 C5.36 8 2.72 8 0 8 C0 5.36 0 2.72 0 0 Z " fill="#000000" transform="translate(164,60)"/>
<path d="M0 0 C2.64 0 5.28 0 8 0 C8 2.64 8 5.28 8 8 C5.36 8 2.72 8 0 8 C0 5.36 0 2.72 0 0 Z " fill="#FCD770" transform="translate(172,36)"/>
<path d="M0 0 C2.64 0 5.28 0 8 0 C8 2.64 8 5.28 8 8 C5.36 8 2.72 8 0 8 C0 5.36 0 2.72 0 0 Z " fill="#FCD770" transform="translate(172,20)"/>
<path d="M0 0 C2.625 0.375 2.625 0.375 5 1 C5.625 3.375 5.625 3.375 6 6 C5.34 6.66 4.68 7.32 4 8 C1.375 7.625 1.375 7.625 -1 7 C-1.625 4.625 -1.625 4.625 -2 2 C-1.34 1.34 -0.68 0.68 0 0 Z " fill="#0D0E0F" transform="translate(118,196)"/>
<path d="M0 0 C2.625 0.375 2.625 0.375 5 1 C5.625 3.375 5.625 3.375 6 6 C5.34 6.66 4.68 7.32 4 8 C1.375 7.625 1.375 7.625 -1 7 C-1.625 4.625 -1.625 4.625 -2 2 C-1.34 1.34 -0.68 0.68 0 0 Z " fill="#0D0E0F" transform="translate(126,188)"/>
<path d="M0 0 C2.625 0.375 2.625 0.375 5 1 C5.625 3.375 5.625 3.375 6 6 C5.34 6.66 4.68 7.32 4 8 C1.375 7.625 1.375 7.625 -1 7 C-1.625 4.625 -1.625 4.625 -2 2 C-1.34 1.34 -0.68 0.68 0 0 Z " fill="#0D0E0F" transform="translate(110,188)"/>
<path d="M0 0 C2.625 0.375 2.625 0.375 5 1 C5.625 3.375 5.625 3.375 6 6 C5.34 6.66 4.68 7.32 4 8 C1.375 7.625 1.375 7.625 -1 7 C-1.625 4.625 -1.625 4.625 -2 2 C-1.34 1.34 -0.68 0.68 0 0 Z " fill="#0D0E0F" transform="translate(118,180)"/>
<path d="M0 0 C2.625 0.375 2.625 0.375 5 1 C5.625 3.375 5.625 3.375 6 6 C5.34 6.66 4.68 7.32 4 8 C1.375 7.625 1.375 7.625 -1 7 C-1.625 4.625 -1.625 4.625 -2 2 C-1.34 1.34 -0.68 0.68 0 0 Z " fill="#0D0E0F" transform="translate(214,44)"/>
<path d="M0 0 C2.625 0.375 2.625 0.375 5 1 C5.625 3.375 5.625 3.375 6 6 C5.34 6.66 4.68 7.32 4 8 C1.375 7.625 1.375 7.625 -1 7 C-1.625 4.625 -1.625 4.625 -2 2 C-1.34 1.34 -0.68 0.68 0 0 Z " fill="#0D0E0F" transform="translate(222,36)"/>
<path d="M0 0 C2.625 0.375 2.625 0.375 5 1 C5.625 3.375 5.625 3.375 6 6 C5.34 6.66 4.68 7.32 4 8 C1.375 7.625 1.375 7.625 -1 7 C-1.625 4.625 -1.625 4.625 -2 2 C-1.34 1.34 -0.68 0.68 0 0 Z " fill="#0D0E0F" transform="translate(206,36)"/>
<path d="M0 0 C2.625 0.375 2.625 0.375 5 1 C5.625 3.375 5.625 3.375 6 6 C5.34 6.66 4.68 7.32 4 8 C1.375 7.625 1.375 7.625 -1 7 C-1.625 4.625 -1.625 4.625 -2 2 C-1.34 1.34 -0.68 0.68 0 0 Z " fill="#0D0E0F" transform="translate(214,28)"/>
</svg>
